<svg width="614" height="274" viewBox="0 0 614 274" fill="none" xmlns="http://www.w3.org/2000/svg">
<rect width="614" height="274" fill="#0E0E0E"/>
<path d="M324.457 104.993L341.978 144.386H306.151L294.793 117.138L288.509 144.386H258.18L267.242 104.993H261.14L272.801 54H303.19L297.329 79.3759C305.244 70.9174 312.977 62.3383 320.831 54H355.753L314.549 96.2925L318.235 104.993L324.457 104.993Z" fill="#863DFF"/>
<path d="M198.738 220.159L191.966 194.747L190.998 196.359V220.353H185V174.365H190.998V184.363L194.997 174.365H202.415L196.287 187.652L204.994 220.159H198.738ZM214.347 174.236V220.159H208.219V174.236H214.347ZM232.535 209.839L232.793 174.107H238.985L238.598 220.675H228.988L223.763 184.621V220.675H217.572V174.107H227.569L232.535 209.839ZM251.562 220.933H250.143C245.628 220.933 242.016 217.321 242.016 212.806V181.718C242.016 177.203 245.628 173.527 250.143 173.527H251.562C256.077 173.527 259.689 177.203 259.689 181.718V185.008H253.368V181.718C253.368 180.622 252.594 179.848 251.562 179.848H250.143C249.176 179.848 248.273 180.622 248.273 181.718V212.806C248.273 213.774 249.176 214.677 250.143 214.677H251.562C252.594 214.677 253.368 213.774 253.368 212.806V196.037H249.756V189.78H259.689V212.806C259.689 217.321 256.077 220.933 251.562 220.933ZM294.518 174.236H305.289V220.288H299.226V183.847L293.486 220.417H291.1L290.519 220.288L290.003 220.417H287.617L281.941 183.847V220.288H275.814V174.236H286.649L290.584 200.294L294.518 174.236ZM324.316 220.417L321.994 204.486H315.48L313.352 220.417H307.16L314.126 174.301H322.446L330.508 220.417H324.316ZM316.319 198.359H321.091L318.64 181.589L316.319 198.359ZM342.376 220.288C337.603 220.288 333.733 216.418 333.733 211.645V183.008C333.733 178.235 337.603 174.365 342.376 174.365C347.149 174.365 351.019 178.235 351.019 183.008V185.588H344.891V183.008C344.891 181.654 343.73 180.493 342.376 180.493C341.021 180.493 339.86 181.654 339.86 183.008V211.645C339.86 213 341.021 214.161 342.376 214.161C343.73 214.161 344.891 213 344.891 211.645V207.518H351.019V211.645C351.019 216.418 347.149 220.288 342.376 220.288ZM367.982 220.159L361.209 194.747L360.242 196.359V220.353H354.243V174.365H360.242V184.363L364.241 174.365H371.658L365.531 187.652L374.238 220.159H367.982ZM383.59 174.236V220.159H377.463V174.236H383.59ZM401.779 209.839L402.037 174.107H408.229L407.842 220.675H398.231L393.007 184.621V220.675H386.815V174.107H396.812L401.779 209.839ZM420.806 220.933H419.387C414.872 220.933 411.26 217.321 411.26 212.806V181.718C411.26 177.203 414.872 173.527 419.387 173.527H420.806C425.321 173.527 428.933 177.203 428.933 181.718V185.008H422.612V181.718C422.612 180.622 421.838 179.848 420.806 179.848H419.387C418.419 179.848 417.516 180.622 417.516 181.718V212.806C417.516 213.774 418.419 214.677 419.387 214.677H420.806C421.838 214.677 422.612 213.774 422.612 212.806V196.037H419V189.78H428.933V212.806C428.933 217.321 425.321 220.933 420.806 220.933Z" fill="white"/>
</svg>
